<?xml version="1.0" encoding="utf-8"?>
<!-- Generator: Adobe Illustrator 24.1.0, SVG Export Plug-In . SVG Version: 6.00 Build 0)  -->
<svg version="1.1" id="Layer_1" xmlns="http://www.w3.org/2000/svg" xmlns:xlink="http://www.w3.org/1999/xlink" x="0px" y="0px"
	 viewBox="0 0 244.8 248.8" style="enable-background:new 0 0 244.8 248.8;" xml:space="preserve">
<style type="text/css">
	.st0{fill:#3FA9F5;}
	.st1{fill-rule:evenodd;clip-rule:evenodd;fill:#FFFFFF;}
	.st2{fill:#FFFFFF;}
</style>
<g>
	<circle class="st0" cx="122.4" cy="126.4" r="122.4"/>
	<path class="st1" d="M179.7,111.6C179.7,111.6,179.7,111.6,179.7,111.6c0,0-0.2-0.7-0.3-1.5C177.5,91,164.7,75.3,146.9,70
		c-18.9-5.6-38,0.3-50.3,15.7c-0.8,1-1.4,1.2-2.6,0.8c-4.6-1.7-9.3-2.4-14.2-2.2C62,85.1,47.5,96.9,43,114.2
		c-0.7,2.5,0.2,4.3,2.3,4.8c2.1,0.5,3.5-0.6,4.2-3.3c3-10.9,9.7-18.6,20.2-22.7c8.3-3.2,16.6-2.9,24.8,0.7c2.7,1.2,3.7,0.9,5.5-1.6
		c0.5-0.7,1-1.4,1.5-2c11.6-15,31.9-20.1,48.8-11.7c15,7.4,22.3,19.8,22.8,36.4c0.1,2.7,1.1,3.8,3.8,3.8c1.1,0,2.2-0.1,3.3-0.1
		l-0.2-4.7c0-0.3,0,0-0.1-1.1C179.8,112.4,179.7,112,179.7,111.6z"/>
	<path class="st2" d="M52.8,120.5c7.9,0,13.5,2.7,18.8,7.2c0.6,0.6,0.7,1.6,0.1,2.2l-2.1,2.1c-0.6,0.8-1.2,0.7-2-0.1
		c-4-3.5-9.6-5.8-14.9-5.8c-12.3,0-21.7,10.4-21.7,22.4c0,12,9.4,22.3,21.7,22.3c6.8,0,10.7-2.7,14.9-5.8c0.8-0.6,1.4-0.5,1.9-0.2
		l2.3,2.1c0.6,0.5,0.5,1.6-0.1,2.1c-5.3,5.1-12,7.5-18.9,7.5c-15.6,0-28.1-12.4-28.1-27.9C24.7,133.1,37.2,120.5,52.8,120.5z"/>
	<path class="st2" d="M80.8,122.8c0-0.8,0.7-1.5,1.5-1.5h2.4c0.8,0,1.5,0.7,1.5,1.5v51.5c0,0.8-0.7,1.5-1.5,1.5h-2.4
		c-0.8,0-1.5-0.7-1.5-1.5L80.8,122.8L80.8,122.8z"/>
	<path class="st2" d="M110.5,143.9c8.6,0,15.5,7.5,15.5,16.3c0,9-6.8,16.4-15.5,16.4c-8.6,0-15.5-7.5-15.5-16.4
		C95.1,151.4,101.9,143.9,110.5,143.9z M110.5,171.5c5.7,0,10.1-5.1,10.1-11.4c0-6.1-4.4-11.1-10.1-11.1c-5.7,0-10.1,5-10.1,11.1
		C100.4,166.5,104.9,171.5,110.5,171.5z"/>
	<path class="st2" d="M134.4,146.1c0-0.8,0.7-1.5,1.5-1.5h2.5c0.8,0,1.5,0.7,1.5,1.5v16.4c0,5.9,2.6,8.8,7,8.8
		c5.9,0,9.3-4.4,9.3-4.4c0-1.7,0-3.5,0-20.8c0-0.8,0.7-1.5,1.5-1.5h2.4c0.8,0,1.5,0.7,1.5,1.5v28.2c0,0.8-0.7,1.5-1.5,1.5h-1.5
		c-0.9,0-1.2-0.5-1.4-1.3l-0.5-2c0,0-3.7,4.1-10.1,4.1c-9,0-12.1-5.8-12.1-14.1V146.1z"/>
	<path class="st2" d="M174,122.8c0-0.8,0.6-1.5,1.4-1.5h17.4c15,0,27.3,12.2,27.3,27.2c0,15.1-12.3,27.3-27.3,27.3h-17.4
		c-0.8,0-1.4-0.7-1.4-1.5V122.8z M191.6,170.4c12.8,0,22-9.1,22-21.9c0-12.8-9.3-21.9-22-21.9h-11.7v43.8H191.6z"/>
</g>
</svg>
